<svg width="43" height="42" viewBox="0 0 43 42" fill="none" xmlns="http://www.w3.org/2000/svg">
<path d="M5.75 10.5H9.25M9.25 10.5H37.25M9.25 10.5V35C9.25 35.9283 9.61875 36.8185 10.2751 37.4749C10.9315 38.1313 11.8217 38.5 12.75 38.5H30.25C31.1783 38.5 32.0685 38.1313 32.7249 37.4749C33.3813 36.8185 33.75 35.9283 33.75 35V10.5M14.5 10.5V7C14.5 6.07174 14.8687 5.1815 15.5251 4.52513C16.1815 3.86875 17.0717 3.5 18 3.5H25C25.9283 3.5 26.8185 3.86875 27.4749 4.52513C28.1313 5.1815 28.5 6.07174 28.5 7V10.5M18 19.25V29.75M25 19.25V29.75" stroke="black" stroke-width="4" stroke-linecap="round" stroke-linejoin="round"/>
</svg>
