<svg width="228" height="228" viewBox="0 0 228 228" fill="none" xmlns="http://www.w3.org/2000/svg">
<g clip-path="url(#clip0_52_6)">
<path d="M169.31 128.43C169.31 132.61 164.78 135.23 161.16 133.14L69.26 80.08C65.64 77.99 65.64 72.76 69.26 70.67L161.16 17.61C164.78 15.52 169.31 18.13 169.31 22.32V41.57H227.12V11.26C227.12 5.04 222.08 0 215.86 0H11.26C5.04 0 0 5.04 0 11.26V215.86C0 222.08 5.04 227.12 11.26 227.12H215.86C222.08 227.12 227.12 222.08 227.12 215.86V109.18H169.31V128.43ZM201.17 211.98L178.05 211.89L178.23 212.07L25.88 211.45C18.33 211.42 14.57 202.29 19.91 196.95L85.5 131.36C88.82 128.04 94.2 128.04 97.51 131.36L132.99 166.84C136.31 170.16 141.69 170.16 145 166.84L154.77 157.07C158.09 153.75 163.47 153.75 166.78 157.07L207.2 197.49C212.56 202.85 208.74 212.02 201.16 211.99L201.17 211.98Z" fill="#DEDEDE"/>
<path d="M169.31 41.57V22.32C169.31 18.14 164.78 15.52 161.16 17.61L69.2599 70.67C65.6399 72.76 65.6399 77.99 69.2599 80.08L161.16 133.14C164.78 135.23 169.31 132.62 169.31 128.43V109.18H227.12V41.57H169.31Z" fill="white"/>
<path d="M154.78 157.07L145.01 166.84C141.69 170.16 136.31 170.16 133 166.84L97.52 131.36C94.2 128.04 88.82 128.04 85.51 131.36L19.91 196.95C14.57 202.29 18.33 211.42 25.88 211.45L178.23 212.07L178.05 211.89L201.17 211.98C208.75 212.01 212.57 202.84 207.21 197.48L166.79 157.06C163.47 153.74 158.09 153.74 154.78 157.06V157.07Z" fill="white"/>
</g>
<defs>
<clipPath id="clip0_52_6">
<rect width="227.12" height="227.12" fill="white"/>
</clipPath>
</defs>
</svg>
