<svg width="42" height="42" viewBox="0 0 42 42" fill="none" xmlns="http://www.w3.org/2000/svg">
<path d="M17.5001 22.75C18.2516 23.7547 19.2105 24.5861 20.3116 25.1876C21.4127 25.7892 22.6302 26.147 23.8817 26.2366C25.1332 26.3262 26.3894 26.1456 27.565 25.7071C28.7405 25.2686 29.8081 24.5824 30.6951 23.695L35.9451 18.445C37.539 16.7947 38.4209 14.5845 38.401 12.2902C38.3811 9.99602 37.4608 7.80141 35.8385 6.17909C34.2162 4.55677 32.0216 3.63654 29.7274 3.6166C27.4331 3.59667 25.2229 4.47862 23.5726 6.0725L20.5626 9.065M24.5001 19.25C23.7486 18.2453 22.7897 17.4139 21.6886 16.8124C20.5876 16.2108 19.37 15.853 18.1185 15.7634C16.867 15.6738 15.6108 15.8544 14.4353 16.2929C13.2597 16.7314 12.1922 17.4176 11.3051 18.305L6.05511 23.555C4.46122 25.2053 3.57927 27.4155 3.59921 29.7098C3.61914 32.004 4.53937 34.1986 6.16169 35.8209C7.78401 37.4432 9.97862 38.3635 12.2728 38.3834C14.5671 38.4033 16.7773 37.5214 18.4276 35.9275L21.4201 32.935" stroke="black" stroke-width="4" stroke-linecap="round" stroke-linejoin="round"/>
</svg>
