<svg width="49" height="48" viewBox="0 0 49 48" fill="none" xmlns="http://www.w3.org/2000/svg">
<path d="M24.5 26C25.6046 26 26.5 25.1046 26.5 24C26.5 22.8954 25.6046 22 24.5 22C23.3954 22 22.5 22.8954 22.5 24C22.5 25.1046 23.3954 26 24.5 26Z" stroke="black" stroke-width="4" stroke-linecap="round" stroke-linejoin="round"/>
<path d="M38.5 26C39.6046 26 40.5 25.1046 40.5 24C40.5 22.8954 39.6046 22 38.5 22C37.3954 22 36.5 22.8954 36.5 24C36.5 25.1046 37.3954 26 38.5 26Z" stroke="black" stroke-width="4" stroke-linecap="round" stroke-linejoin="round"/>
<path d="M10.5 26C11.6046 26 12.5 25.1046 12.5 24C12.5 22.8954 11.6046 22 10.5 22C9.39543 22 8.5 22.8954 8.5 24C8.5 25.1046 9.39543 26 10.5 26Z" stroke="black" stroke-width="4" stroke-linecap="round" stroke-linejoin="round"/>
</svg>
