<svg width="42" height="42" viewBox="0 0 42 42" fill="none" xmlns="http://www.w3.org/2000/svg">
<path d="M5.25 10.5H8.75M8.75 10.5H36.75M8.75 10.5V35C8.75 35.9283 9.11875 36.8185 9.77513 37.4749C10.4315 38.1313 11.3217 38.5 12.25 38.5H29.75C30.6783 38.5 31.5685 38.1313 32.2249 37.4749C32.8813 36.8185 33.25 35.9283 33.25 35V10.5M14 10.5V7C14 6.07174 14.3687 5.1815 15.0251 4.52513C15.6815 3.86875 16.5717 3.5 17.5 3.5H24.5C25.4283 3.5 26.3185 3.86875 26.9749 4.52513C27.6313 5.1815 28 6.07174 28 7V10.5M17.5 19.25V29.75M24.5 19.25V29.75" stroke="black" stroke-width="4" stroke-linecap="round" stroke-linejoin="round"/>
</svg>
